# xmcd
#
# Track frame offsets: 
#        150
#        36630
#        51748
#        68925
#        87129
#        102581
#        122513
#        143914
#        154428
#        164920
#        181846
#        194689
#        211454
#        230091
#        248755
#        266003
#        310912
#
# Disc length: 4484 seconds
#
# Revision: 0
# Processed by: cddbd v1.5.2PL0 Copyright (c) Steve Scherf et al.
# Submitted via: ExactAudioCopyFreeDBPlugin 1.0
#
DISCID=11118211
DTITLE=Alan Glen - Crazy Life II - A Retrospective Collection
DYEAR=1900
DGENRE=Blues
TTITLE0=Dino Coccia - Mick's Place
TTITLE1=Dr. Feelgood - Wine Women and Whisky
TTITLE2=Cotton and Glen - On The Waterfront
TTITLE3=The Barcodes - I Don't Worry About A Thing
TTITLE4=Little Axe - Trouble In Mind
TTITLE5=Junior Delgardo - Working The Midnight Blues
TTITLE6=Incredible Blues Puppies - Got Love If You Want It
TTITLE7=Tim Renwick - 2 Smokin' Barrels
TTITLE8=Radical Sheiks - Do Just What I Want
TTITLE9=The Barcodes - Everything Or Nothing
TTITLE10=Sonny Black and The Dukes - Zip Your Lip
TTITLE11=Incredible Blues Puppies - Angle Of Dissent
TTITLE12=Shakey Vick Blues Band - Too Bad
TTITLE13=Gordon Smith - One Dime
TTITLE14=Nine Below Zero - Riding on The L&N
TTITLE15=The Yardbirds - Dream Within A Dream - Ain't Done Wrong (Live
TTITLE15=)
TTITLE16=The Barcodes - Crazy Life (Live)
EXTD=
EXTT0=
EXTT1=
EXTT2=
EXTT3=
EXTT4=
EXTT5=
EXTT6=
EXTT7=
EXTT8=
EXTT9=
EXTT10=
EXTT11=
EXTT12=
EXTT13=
EXTT14=
EXTT15=
EXTT16=
PLAYORDER=
